<svg width="33" height="33" viewBox="0 0 33 33" fill="none" xmlns="http://www.w3.org/2000/svg">
<circle cx="16.5" cy="16.5" r="16.5" fill="#8B8E93"/>
<path fill-rule="evenodd" clip-rule="evenodd" d="M11.0805 8.40268H8.40268V11.0805H11.0805V8.40268ZM12.3557 24.4698V21.7919C12.3557 21.0268 11.7181 20.3893 10.953 20.3893H8.40268C7.63758 20.3893 7 21.0268 7 21.7919V24.4698C7 25.2349 7.63758 25.8725 8.40268 25.8725H11.0805C11.8456 25.8725 12.3557 25.2349 12.3557 24.4698ZM12.3557 17.8389V15.1611C12.3557 14.396 11.7181 13.7584 10.953 13.7584H8.40268C7.63758 13.7584 7 14.396 7 15.1611V17.8389C7 18.604 7.63758 19.2416 8.40268 19.2416H11.0805C11.8456 19.1141 12.3557 18.4765 12.3557 17.8389ZM12.3557 11.0805V8.40268C12.3557 7.63758 11.7181 7 10.953 7H8.40268C7.63758 7 7 7.63758 7 8.40268V11.0805C7 11.8456 7.63758 12.4832 8.40268 12.4832H11.0805C11.8456 12.3557 12.3557 11.8456 12.3557 11.0805ZM19.1141 24.4698V21.7919C19.1141 21.0268 18.4765 20.3893 17.7114 20.3893H15.0336C14.2685 20.3893 13.6309 21.0268 13.6309 21.7919V24.4698C13.6309 25.2349 14.2685 25.8725 15.0336 25.8725H17.7114C18.4765 25.8725 19.1141 25.2349 19.1141 24.4698ZM19.1141 17.8389V15.1611C19.1141 14.396 18.4765 13.7584 17.7114 13.7584H15.0336C14.2685 13.7584 13.6309 14.396 13.6309 15.1611V17.8389C13.6309 18.604 14.2685 19.2416 15.0336 19.2416H17.7114C18.4765 19.1141 19.1141 18.4765 19.1141 17.8389ZM19.1141 11.0805V8.40268C19.1141 7.63758 18.4765 7 17.7114 7H15.0336C14.2685 7 13.6309 7.63758 13.6309 8.40268V11.0805C13.6309 11.8456 14.2685 12.4832 15.0336 12.4832H17.7114C18.4765 12.3557 19.1141 11.8456 19.1141 11.0805ZM17.8389 8.40268H15.1611V11.0805H17.8389V8.40268ZM24.4698 8.40268H21.7919V11.0805H24.4698V8.40268ZM11.0805 15.0336H8.40268V17.7114H11.0805V15.0336ZM17.8389 15.0336H15.1611V17.7114H17.8389V15.0336ZM24.4698 15.0336H21.7919V17.7114H24.4698V15.0336ZM11.0805 21.7919H8.40268V24.4698H11.0805V21.7919ZM17.8389 21.7919H15.1611V24.4698H17.8389V21.7919ZM24.4698 21.7919H21.7919V24.4698H24.4698V21.7919ZM21.7919 7C21.0268 7 20.3893 7.63758 20.3893 8.40268V11.0805C20.3893 11.8456 21.0268 12.4832 21.7919 12.4832H24.4698C25.2349 12.4832 25.8725 11.8456 25.8725 11.0805V8.40268C25.8725 7.63758 25.2349 7 24.4698 7H21.7919ZM20.5168 15.0336C20.5168 14.2685 21.1544 13.6309 21.9195 13.6309H24.5973C25.3624 13.6309 26 14.2685 26 15.0336V17.7114C26 18.4765 25.3624 19.1141 24.5973 19.1141H21.9195C21.1544 19.1141 20.5168 18.4765 20.5168 17.7114V15.0336ZM21.7919 20.5168C21.0268 20.5168 20.3893 21.1544 20.3893 21.9195V24.5973C20.3893 25.3624 21.0268 26 21.7919 26H24.4698C25.2349 26 25.8725 25.3624 25.8725 24.5973V21.9195C25.8725 21.1544 25.2349 20.5168 24.4698 20.5168H21.7919Z" fill="#181D26"/>
</svg>
