<svg width="20" height="20" viewBox="0 0 20 20" fill="none" xmlns="http://www.w3.org/2000/svg">
<path d="M9.99996 9.16667C10.6592 9.16667 11.3037 8.97117 11.8519 8.6049C12.4 8.23863 12.8273 7.71803 13.0796 7.10895C13.3319 6.49986 13.3979 5.82964 13.2692 5.18303C13.1406 4.53643 12.8232 3.94249 12.357 3.47631C11.8908 3.01014 11.2969 2.69267 10.6503 2.56405C10.0037 2.43543 9.33343 2.50144 8.72435 2.75374C8.11526 3.00603 7.59467 3.43327 7.22839 3.98143C6.86212 4.5296 6.66663 5.17406 6.66663 5.83333C6.66663 6.71739 7.01782 7.56524 7.64294 8.19036C8.26806 8.81548 9.1159 9.16667 9.99996 9.16667ZM9.99996 4.16667C10.3296 4.16667 10.6518 4.26442 10.9259 4.44755C11.2 4.63069 11.4136 4.89099 11.5398 5.19553C11.6659 5.50007 11.6989 5.83518 11.6346 6.15849C11.5703 6.48179 11.4116 6.77876 11.1785 7.01185C10.9454 7.24493 10.6484 7.40367 10.3251 7.46798C10.0018 7.53229 9.6667 7.49928 9.36215 7.37313C9.05761 7.24699 8.79731 7.03337 8.61418 6.75929C8.43104 6.4852 8.33329 6.16297 8.33329 5.83333C8.33329 5.39131 8.50889 4.96738 8.82145 4.65482C9.13401 4.34226 9.55793 4.16667 9.99996 4.16667Z" fill="#C4DDF2"/>
<path d="M9.99996 10.8333C8.45286 10.8333 6.96913 11.4478 5.87517 12.5418C4.78121 13.6358 4.16663 15.1195 4.16663 16.6666C4.16663 16.8876 4.25442 17.0996 4.4107 17.2558C4.56698 17.4121 4.77895 17.4999 4.99996 17.4999C5.22097 17.4999 5.43293 17.4121 5.58921 17.2558C5.7455 17.0996 5.83329 16.8876 5.83329 16.6666C5.83329 15.5615 6.27228 14.5017 7.05368 13.7203C7.83508 12.9389 8.89489 12.4999 9.99996 12.4999C11.105 12.4999 12.1648 12.9389 12.9462 13.7203C13.7276 14.5017 14.1666 15.5615 14.1666 16.6666C14.1666 16.8876 14.2544 17.0996 14.4107 17.2558C14.567 17.4121 14.7789 17.4999 15 17.4999C15.221 17.4999 15.4329 17.4121 15.5892 17.2558C15.7455 17.0996 15.8333 16.8876 15.8333 16.6666C15.8333 15.1195 15.2187 13.6358 14.1247 12.5418C13.0308 11.4478 11.5471 10.8333 9.99996 10.8333V10.8333Z" fill="#C4DDF2"/>
</svg>
