<svg width="44" height="68" viewBox="0 0 44 68" fill="none" xmlns="http://www.w3.org/2000/svg">
<path d="M37.9336 0H13.3633V7.48679L19.5759 14.8886L44 15.1799V4.48965L37.9336 0Z" fill="#7D7F85"/>
<path d="M22.3411 29.3162H17.4441L9.50171 35.5653L17.9557 43.6345L26.3245 43.7195L36.8982 43.7923L36.9469 35.9779L22.3411 29.3162Z" fill="#7D7F85"/>
<path d="M15.7752 45.4304L7.27243 37.2884L0.0243632 42.9793L0 68H2.87486L15.7752 53.3055V45.4304Z" fill="#7D7F85"/>
<path d="M13.9114 28.6367L0.0974529 21.6595L0 39.1934L13.9114 28.6367Z" fill="#7D7F85"/>
<path d="M3.50831 0.0364026L0 0L0.109635 18.5046L15.9579 26.5132L16.0432 14.9129L3.50831 0.0364026Z" fill="#7D7F85"/>
</svg>
