<svg width="20" height="20" viewBox="0 0 20 20" fill="none" xmlns="http://www.w3.org/2000/svg">
<path d="M10.7833 18.3334H9.20829C8.83699 18.3334 8.48089 18.1859 8.21834 17.9234C7.95579 17.6608 7.80829 17.3047 7.80829 16.9334V16.0251C7.80378 15.9716 7.78415 15.9204 7.75169 15.8776C7.71923 15.8349 7.67528 15.8022 7.62496 15.7834C7.57397 15.7507 7.51468 15.7334 7.45413 15.7334C7.39357 15.7334 7.33428 15.7507 7.28329 15.7834L6.66663 16.4501C6.53727 16.5803 6.38343 16.6837 6.21395 16.7543C6.04447 16.8248 5.8627 16.8611 5.67913 16.8611C5.49555 16.8611 5.31379 16.8248 5.14431 16.7543C4.97483 16.6837 4.82098 16.5803 4.69163 16.4501L3.54996 15.3334C3.41781 15.2043 3.31286 15.0501 3.24129 14.8797C3.16973 14.7094 3.13301 14.5265 3.13329 14.3417C3.13383 13.9639 3.28358 13.6015 3.54996 13.3334L4.16663 12.7167C4.1964 12.6708 4.21224 12.6173 4.21224 12.5626C4.21224 12.5079 4.1964 12.4543 4.16663 12.4084C4.11663 12.2834 4.03329 12.1917 3.91663 12.1917H3.06663C2.69456 12.1895 2.33848 12.0402 2.07617 11.7763C1.81385 11.5124 1.66662 11.1555 1.66663 10.7834V9.20842C1.66663 8.83711 1.81413 8.48102 2.07668 8.21847C2.33923 7.95591 2.69532 7.80842 3.06663 7.80842H3.97496C4.02848 7.8039 4.07961 7.78427 4.12239 7.75181C4.16518 7.71935 4.19786 7.6754 4.21663 7.62508C4.2493 7.57409 4.26666 7.51481 4.26666 7.45425C4.26666 7.39369 4.2493 7.3344 4.21663 7.28342L3.54996 6.66675C3.4197 6.5374 3.31631 6.38355 3.24576 6.21407C3.17522 6.04459 3.13889 5.86283 3.13889 5.67925C3.13889 5.49567 3.17522 5.31391 3.24576 5.14443C3.31631 4.97495 3.4197 4.8211 3.54996 4.69175L4.66663 3.55008C4.79446 3.41856 4.94731 3.31394 5.11619 3.24238C5.28506 3.17082 5.46655 3.13377 5.64996 3.13341C5.8385 3.13259 6.02535 3.16896 6.1998 3.24046C6.37426 3.31196 6.5329 3.41718 6.66663 3.55008L7.28329 4.16675C7.3292 4.19652 7.38274 4.21236 7.43746 4.21236C7.49218 4.21236 7.54572 4.19652 7.59163 4.16675C7.71663 4.11675 7.80829 4.03341 7.80829 3.91675V3.06675C7.81049 2.69468 7.95984 2.3386 8.22372 2.07629C8.48759 1.81397 8.84455 1.66674 9.21663 1.66675H10.8333C11.2046 1.66675 11.5607 1.81425 11.8232 2.0768C12.0858 2.33935 12.2333 2.69545 12.2333 3.06675V3.97508C12.2378 4.0286 12.2574 4.07973 12.2899 4.12252C12.3224 4.1653 12.3663 4.19798 12.4166 4.21675C12.4676 4.24942 12.5269 4.26678 12.5875 4.26678C12.648 4.26678 12.7073 4.24942 12.7583 4.21675L13.3333 3.55008C13.4626 3.41982 13.6165 3.31644 13.786 3.24589C13.9555 3.17534 14.1372 3.13902 14.3208 3.13902C14.5044 3.13902 14.6861 3.17534 14.8556 3.24589C15.0251 3.31644 15.1789 3.41982 15.3083 3.55008L16.45 4.66675C16.5817 4.79613 16.6864 4.95044 16.758 5.1207C16.8295 5.29095 16.8664 5.47374 16.8666 5.65842C16.8706 5.84616 16.8357 6.0327 16.764 6.20625C16.6923 6.37981 16.5853 6.53661 16.45 6.66675L15.8333 7.28342C15.8035 7.32932 15.7877 7.38287 15.7877 7.43758C15.7877 7.4923 15.8035 7.54584 15.8333 7.59175C15.8833 7.71675 15.9666 7.80842 16.0833 7.80842H16.9916C17.3535 7.82556 17.6948 7.98148 17.9446 8.24376C18.1945 8.50603 18.3337 8.8545 18.3333 9.21675V10.8334C18.3333 11.2047 18.1858 11.5608 17.9232 11.8234C17.6607 12.0859 17.3046 12.2334 16.9333 12.2334H16.025C15.9714 12.2379 15.9203 12.2576 15.8775 12.29C15.8347 12.3225 15.8021 12.3664 15.7833 12.4167C15.7535 12.4627 15.7377 12.5162 15.7377 12.5709C15.7377 12.6256 15.7535 12.6792 15.7833 12.7251L16.425 13.3668C16.5552 13.4961 16.6586 13.6499 16.7292 13.8194C16.7997 13.9889 16.836 14.1707 16.836 14.3542C16.836 14.5378 16.7997 14.7196 16.7292 14.8891C16.6586 15.0586 16.5552 15.2124 16.425 15.3417L15.3333 16.4501C15.2055 16.5816 15.0526 16.6862 14.8837 16.7578C14.7149 16.8293 14.5334 16.8664 14.35 16.8667C13.9778 16.8619 13.6222 16.7124 13.3583 16.4501L12.7166 15.8334C12.6707 15.8036 12.6172 15.7878 12.5625 15.7878C12.5077 15.7878 12.4542 15.8036 12.4083 15.8334C12.2833 15.8834 12.1916 15.9667 12.1916 16.0834V16.9917C12.1745 17.3536 12.0186 17.6949 11.7563 17.9448C11.494 18.1946 11.1455 18.3338 10.7833 18.3334V18.3334ZM9.47496 16.6667H10.525V16.0251C10.5285 15.6408 10.646 15.2662 10.8626 14.9487C11.0792 14.6313 11.3851 14.3852 11.7416 14.2417C12.0996 14.0853 12.4961 14.039 12.8805 14.1087C13.2649 14.1785 13.6198 14.3611 13.9 14.6334L14.35 15.0834L15.0833 14.3501L14.6333 13.8917C14.3627 13.6158 14.1803 13.2657 14.109 12.8859C14.0378 12.506 14.0811 12.1136 14.2333 11.7584C14.3781 11.4035 14.6247 11.0993 14.942 10.8843C15.2594 10.6692 15.6333 10.553 16.0166 10.5501H16.6666V9.47508H16.025C15.6407 9.47153 15.2661 9.35402 14.9486 9.13744C14.6312 8.92085 14.3851 8.61493 14.2416 8.25842C14.0852 7.90044 14.0388 7.50397 14.1086 7.11957C14.1784 6.73517 14.361 6.38025 14.6333 6.10008L15.0833 5.65008L14.35 4.91675L13.8916 5.36675C13.6114 5.62272 13.2639 5.79329 12.8899 5.85838C12.516 5.92346 12.1313 5.88036 11.7811 5.73413C11.4308 5.58791 11.1297 5.34465 10.913 5.03301C10.6964 4.72137 10.5733 4.35432 10.5583 3.97508V3.33341H9.47496V3.97508C9.47141 4.35937 9.3539 4.73396 9.13732 5.05143C8.92073 5.36889 8.61481 5.61494 8.25829 5.75842C7.90032 5.91489 7.50385 5.9612 7.11945 5.89145C6.73505 5.82169 6.38013 5.63903 6.09996 5.36675L5.64996 4.91675L4.91663 5.65008L5.36663 6.10842C5.6226 6.38864 5.79317 6.73618 5.85825 7.11009C5.92334 7.48401 5.88023 7.86874 5.73401 8.21897C5.58778 8.56921 5.34453 8.87038 5.03289 9.08701C4.72125 9.30364 4.3542 9.42672 3.97496 9.44175H3.33329V10.4917H3.97496C4.35925 10.4953 4.73384 10.6128 5.0513 10.8294C5.36876 11.046 5.61481 11.3519 5.75829 11.7084C5.91477 12.0664 5.96108 12.4629 5.89133 12.8473C5.82157 13.2317 5.63891 13.5866 5.36663 13.8667L4.91663 14.3167L5.64996 15.0501L6.10829 14.6001C6.38852 14.3441 6.73606 14.1735 7.10997 14.1085C7.48389 14.0434 7.86861 14.0865 8.21885 14.2327C8.56909 14.3789 8.87026 14.6222 9.08689 14.9338C9.30352 15.2455 9.4266 15.6125 9.44163 15.9918L9.47496 16.6667Z" fill="#C4DDF2"/>
<path d="M10 12.9166C9.42318 12.9166 8.85927 12.7455 8.37963 12.425C7.89999 12.1046 7.52615 11.649 7.30539 11.1161C7.08464 10.5831 7.02688 9.99668 7.13942 9.43091C7.25196 8.86513 7.52974 8.34543 7.93765 7.93753C8.34555 7.52962 8.86525 7.25184 9.43103 7.1393C9.99681 7.02676 10.5833 7.08452 11.1162 7.30527C11.6492 7.52603 12.1047 7.89986 12.4252 8.37951C12.7457 8.85915 12.9167 9.42306 12.9167 9.99992C12.9167 10.7735 12.6094 11.5153 12.0624 12.0623C11.5155 12.6093 10.7736 12.9166 10 12.9166V12.9166ZM10 8.74992C9.75282 8.74992 9.51114 8.82323 9.30558 8.96058C9.10002 9.09794 8.9398 9.29316 8.84519 9.52157C8.75058 9.74997 8.72583 10.0013 8.77406 10.2438C8.82229 10.4863 8.94134 10.709 9.11616 10.8838C9.29097 11.0586 9.5137 11.1777 9.75618 11.2259C9.99866 11.2741 10.25 11.2494 10.4784 11.1548C10.7068 11.0602 10.902 10.8999 11.0394 10.6944C11.1767 10.4888 11.25 10.2471 11.25 9.99992C11.25 9.6684 11.1183 9.35046 10.8839 9.11604C10.6495 8.88162 10.3316 8.74992 10 8.74992Z" fill="#C4DDF2"/>
</svg>
