<svg width="24" height="37" viewBox="0 0 24 37" fill="none" xmlns="http://www.w3.org/2000/svg">
<g clip-path="url(#clip0)">
<path d="M20.6911 0H7.28906V4.0737L10.6778 8.10118L24 8.25963V2.4429L20.6911 0Z" fill="white"/>
<path d="M12.1859 15.9514H9.51484L5.18262 19.3517L9.79391 23.7423L14.3587 23.7885L20.1261 23.8281L20.1527 19.5762L12.1859 15.9514Z" fill="white"/>
<path d="M8.60465 24.7195L3.96678 20.2892L0.013289 23.3858L0 37H1.56811L8.60465 29.0044V24.7195Z" fill="white"/>
<path d="M7.58804 15.5817L0.0531561 11.7853L0 21.3258L7.58804 15.5817Z" fill="white"/>
<path d="M1.91362 0.0198073L0 0L0.0598007 10.0687L8.70432 14.4263L8.75083 8.11438L1.91362 0.0198073Z" fill="white"/>
</g>
<defs>
<clipPath id="clip0">
<rect width="24" height="37" fill="white"/>
</clipPath>
</defs>
</svg>
