<svg width="76" height="26" viewBox="0 0 76 26" fill="none" xmlns="http://www.w3.org/2000/svg">
<g clip-path="url(#clip0)">
<path d="M36.7284 11.4655C37.278 11.2159 37.8786 11.0787 38.5048 11.0787C39.1182 11.0787 39.7061 11.2035 40.2684 11.453C40.8307 11.69 41.3546 12.0393 41.8019 12.476L44.7029 9.5691C43.9233 8.82054 42.9904 8.19674 41.9553 7.7476C40.9073 7.29846 39.7444 7.03647 38.5304 7.03647C37.2652 7.03647 36.0639 7.32342 34.9776 7.82246C33.3546 8.57102 32.0128 9.80614 31.0799 11.3157C30.147 12.8253 29.6102 14.6219 29.6102 16.5432C29.6102 19.1008 30.5559 21.4463 32.1406 23.1679C32.9329 24.0288 33.8914 24.7524 34.9776 25.2514C36.0639 25.7505 37.2652 26.0374 38.5304 26.0374C39.655 26.0374 40.7412 25.8129 41.7508 25.3887C42.7604 24.9645 43.6677 24.3282 44.4345 23.5547L41.4441 20.7351C41.0224 21.1593 40.5751 21.4712 40.0895 21.6708C39.6038 21.8704 39.0927 21.9827 38.5304 21.9827C37.9042 21.9827 37.3163 21.8455 36.754 21.596C35.9233 21.2092 35.1693 20.548 34.6326 19.6747C34.0959 18.8013 33.7636 17.7284 33.7636 16.5557C33.7636 14.9837 34.3514 13.5988 35.2332 12.6257C35.655 12.1017 36.1789 11.7274 36.7284 11.4655Z" fill="#7D7F85"/>
<path d="M59.3865 7.79749C58.3003 7.29845 57.099 7.01151 55.8338 7.01151C54.5686 7.01151 53.3674 7.29845 52.2811 7.79749C50.6581 8.54605 49.3163 9.78118 48.3833 11.2908C47.4504 12.8004 46.9137 14.5969 46.9137 16.5182C46.9137 19.0758 47.8594 21.4213 49.444 23.143C50.2364 24.0038 51.1948 24.7274 52.2811 25.2265C53.3674 25.7255 54.5686 26.0125 55.8338 26.0125V21.9578C55.2076 21.9578 54.6198 21.8205 54.0575 21.571C53.2268 21.1842 52.4728 20.523 51.9361 19.6497C51.3993 18.7764 51.0671 17.7034 51.0671 16.5307C51.0671 14.9587 51.6549 13.5739 52.5367 12.6008C52.984 12.1142 53.4952 11.7399 54.0447 11.4779C54.5942 11.2284 55.1948 11.0912 55.821 11.0912C56.4472 11.0912 57.0351 11.2284 57.5974 11.4779C58.4281 11.8647 59.1821 12.5259 59.7188 13.3992C59.9233 13.7361 60.1022 14.1104 60.2428 14.4971H55.821V18.5518H64.7412V16.5307C64.7412 13.9731 63.7955 11.6276 62.2108 9.90594C61.4185 9.02014 60.46 8.29653 59.3865 7.79749Z" fill="#7D7F85"/>
<path d="M23.3866 8.48367C23.0033 8.22168 22.5943 7.99711 22.1726 7.79749C21.0863 7.29845 19.885 7.01151 18.6199 7.01151C17.3547 7.01151 16.1534 7.29845 15.0672 7.79749C13.4442 8.54605 12.1023 9.78118 11.1694 11.2908C10.2493 12.8004 9.71252 14.5969 9.71252 16.5057C9.71252 19.0633 10.6582 21.4088 12.2429 23.1305C13.0352 23.9913 13.9937 24.715 15.0799 25.214C16.1662 25.713 17.3675 26 18.6327 26C19.885 26 21.0991 25.713 22.1854 25.214C22.6071 25.0144 23.016 24.7898 23.3994 24.5278V25.451H27.5528V7.39826H23.3866V8.48367ZM21.917 20.4357C21.4697 20.9222 20.9585 21.2965 20.409 21.5585C19.8595 21.808 19.2588 21.9453 18.6327 21.9453C18.0065 21.9453 17.4186 21.808 16.8563 21.5585C16.0256 21.1718 15.2716 20.5105 14.7349 19.6372C14.1981 18.7639 13.8659 17.691 13.8659 16.5182C13.8659 14.9462 14.4537 13.5614 15.3355 12.5883C15.7828 12.1017 16.294 11.7274 16.8435 11.4654C17.393 11.2159 17.9937 11.0787 18.6199 11.0787C19.2461 11.0787 19.8339 11.2159 20.3962 11.4654C21.2269 11.8522 21.9809 12.5134 22.5176 13.3867C23.0544 14.2601 23.3866 15.333 23.3866 16.5057C23.3994 18.0777 22.8116 19.4626 21.917 20.4357Z" fill="#7D7F85"/>
<path d="M3.64217 1.52207C2.79872 2.20825 2.17252 3.10653 1.76358 4.10461C1.36741 5.11516 1.17572 6.22553 1.17572 7.41075C1.17572 7.7476 1.17572 8.19674 1.17572 8.70825H0V12.763H1.1885C1.1885 18.2524 1.1885 25.4511 1.1885 25.4511H5.34185C5.34185 25.4511 5.34185 18.2524 5.34185 12.763H7.39936V8.70825H5.34185C5.34185 8.18426 5.34185 7.7476 5.34185 7.41075C5.34185 6.71209 5.44409 6.15067 5.58466 5.72649C5.69968 5.41459 5.82748 5.16507 5.98083 4.96545C6.21086 4.6785 6.46645 4.47889 6.83706 4.3167C7.20767 4.15451 7.71885 4.04223 8.39617 4.04223V0C7.38658 0 6.41534 0.149712 5.50799 0.474088C4.83067 0.723608 4.19169 1.07294 3.64217 1.52207Z" fill="#7D7F85"/>
<path d="M73.1118 8.70825C73.1118 6.07581 73.1118 3.90498 73.1118 2.93185H68.9585C68.9585 3.90498 68.9585 6.07581 68.9585 8.70825H66.0703V12.7629H68.9585C68.9585 18.8887 68.9585 25.451 68.9585 25.451H73.1118C73.1118 25.451 73.1118 18.8887 73.1118 12.7629H76V8.70825H73.1118Z" fill="#7D7F85"/>
</g>
<defs>
<clipPath id="clip0">
<rect width="76" height="26" fill="white"/>
</clipPath>
</defs>
</svg>
