<svg width="20" height="20" viewBox="0 0 20 20" fill="none" xmlns="http://www.w3.org/2000/svg">
<rect width="20" height="20" fill="#C4DDF2"/>
<path d="M18.225 9.58331C17.6916 8.65831 14.7583 4.01664 9.77498 4.16664C5.16664 4.28331 2.49998 8.33331 1.77498 9.58331C1.70184 9.70999 1.66333 9.85369 1.66333 9.99998C1.66333 10.1463 1.70184 10.29 1.77498 10.4166C2.29998 11.325 5.10831 15.8333 10.0166 15.8333H10.225C14.8333 15.7166 17.5083 11.6666 18.225 10.4166C18.2981 10.29 18.3366 10.1463 18.3366 9.99998C18.3366 9.85369 18.2981 9.70999 18.225 9.58331V9.58331ZM10.1833 14.1666C6.59164 14.25 4.24998 11.175 3.51664 9.99998C4.34998 8.65831 6.52498 5.91664 9.85831 5.83331C13.4333 5.74164 15.7833 8.82498 16.525 9.99998C15.6666 11.3416 13.5166 14.0833 10.1833 14.1666V14.1666Z" fill="#4A4E59"/>
<path d="M10 7.08325C9.42318 7.08325 8.85927 7.25431 8.37963 7.5748C7.89999 7.89529 7.52615 8.35081 7.30539 8.88376C7.08464 9.41671 7.02688 10.0032 7.13942 10.5689C7.25196 11.1347 7.52974 11.6544 7.93765 12.0623C8.34555 12.4702 8.86525 12.748 9.43103 12.8605C9.99681 12.9731 10.5833 12.9153 11.1162 12.6946C11.6492 12.4738 12.1047 12.1 12.4252 11.6203C12.7457 11.1407 12.9167 10.5768 12.9167 9.99992C12.9167 9.22637 12.6094 8.48451 12.0624 7.93752C11.5155 7.39054 10.7736 7.08325 10 7.08325V7.08325ZM10 11.2499C9.75282 11.2499 9.51114 11.1766 9.30558 11.0393C9.10002 10.9019 8.9398 10.7067 8.84519 10.4783C8.75058 10.2499 8.72583 9.99853 8.77406 9.75606C8.82229 9.51358 8.94134 9.29085 9.11616 9.11604C9.29097 8.94122 9.5137 8.82217 9.75618 8.77394C9.99866 8.72571 10.25 8.75046 10.4784 8.84507C10.7068 8.93968 10.902 9.0999 11.0394 9.30546C11.1767 9.51102 11.25 9.75269 11.25 9.99992C11.25 10.3314 11.1183 10.6494 10.8839 10.8838C10.6495 11.1182 10.3316 11.2499 10 11.2499Z" fill="#4A4E59"/>
</svg>
