<svg width="20" height="20" viewBox="0 0 20 20" fill="none" xmlns="http://www.w3.org/2000/svg">
<path d="M10.0001 9.16667C10.6594 9.16667 11.3038 8.97117 11.852 8.6049C12.4001 8.23863 12.8274 7.71803 13.0797 7.10895C13.332 6.49986 13.398 5.82964 13.2694 5.18303C13.1407 4.53643 12.8233 3.94249 12.3571 3.47631C11.8909 3.01014 11.297 2.69267 10.6504 2.56405C10.0038 2.43543 9.33356 2.50144 8.72447 2.75374C8.11538 3.00603 7.59479 3.43327 7.22852 3.98143C6.86224 4.5296 6.66675 5.17406 6.66675 5.83333C6.66675 6.71739 7.01794 7.56524 7.64306 8.19036C8.26818 8.81548 9.11603 9.16667 10.0001 9.16667ZM10.0001 4.16667C10.3297 4.16667 10.6519 4.26442 10.926 4.44755C11.2001 4.63069 11.4137 4.89099 11.5399 5.19553C11.666 5.50007 11.699 5.83518 11.6347 6.15849C11.5704 6.48179 11.4117 6.77876 11.1786 7.01185C10.9455 7.24493 10.6485 7.40367 10.3252 7.46798C10.0019 7.53229 9.66682 7.49928 9.36228 7.37313C9.05773 7.24699 8.79743 7.03337 8.6143 6.75928C8.43116 6.4852 8.33341 6.16297 8.33341 5.83333C8.33341 5.39131 8.50901 4.96738 8.82157 4.65482C9.13413 4.34226 9.55805 4.16667 10.0001 4.16667Z" fill="#8B8E93"/>
<path d="M10.0001 10.8333C8.45299 10.8333 6.96925 11.4478 5.87529 12.5418C4.78133 13.6358 4.16675 15.1195 4.16675 16.6666C4.16675 16.8876 4.25455 17.0996 4.41083 17.2558C4.56711 17.4121 4.77907 17.4999 5.00008 17.4999C5.2211 17.4999 5.43306 17.4121 5.58934 17.2558C5.74562 17.0996 5.83341 16.8876 5.83341 16.6666C5.83341 15.5615 6.2724 14.5017 7.0538 13.7203C7.83521 12.9389 8.89501 12.4999 10.0001 12.4999C11.1052 12.4999 12.165 12.9389 12.9464 13.7203C13.7278 14.5017 14.1667 15.5615 14.1667 16.6666C14.1667 16.8876 14.2545 17.0996 14.4108 17.2558C14.5671 17.4121 14.7791 17.4999 15.0001 17.4999C15.2211 17.4999 15.4331 17.4121 15.5893 17.2558C15.7456 17.0996 15.8334 16.8876 15.8334 16.6666C15.8334 15.1195 15.2188 13.6358 14.1249 12.5418C13.0309 11.4478 11.5472 10.8333 10.0001 10.8333Z" fill="#8B8E93"/>
</svg>
