<svg width="17" height="13" viewBox="0 0 17 13" fill="none" xmlns="http://www.w3.org/2000/svg">
<path d="M16.7647 5.92493L11.0978 0.238379C10.5918 -0.269349 9.71477 0.086061 9.71477 0.813805V4.06326H5.12724C4.67861 4.06326 4.31767 4.42544 4.31767 4.87563V8.12509C4.31767 8.57528 4.67861 8.93745 5.12724 8.93745H9.71477V12.1869C9.71477 12.9113 10.5884 13.2701 11.0978 12.7623L16.7647 7.07579C17.0784 6.75761 17.0784 6.24311 16.7647 5.92493ZM6.47651 0.407622V1.76156C6.47651 1.98496 6.29436 2.16775 6.07173 2.16775H3.23826C2.6412 2.16775 2.15884 2.65178 2.15884 3.2509V9.74982C2.15884 10.3489 2.6412 10.833 3.23826 10.833H6.07173C6.29436 10.833 6.47651 11.0158 6.47651 11.2392V12.5931C6.47651 12.8165 6.29436 12.9993 6.07173 12.9993H3.23826C1.45047 12.9993 0 11.5438 0 9.74982V3.2509C0 1.45693 1.45047 0.00143961 3.23826 0.00143961H6.07173C6.29436 0.00143961 6.47651 0.184222 6.47651 0.407622Z" fill="#C4DDF2"/>
</svg>
