<svg width="17" height="17" viewBox="0 0 17 17" fill="none" xmlns="http://www.w3.org/2000/svg">
<path d="M7.63398 1.5C8.01888 0.833332 8.98112 0.833333 9.36602 1.5L14.9952 11.25C15.3801 11.9167 14.899 12.75 14.1292 12.75H2.87083C2.10103 12.75 1.61991 11.9167 2.00481 11.25L7.63398 1.5Z" fill="#FF5050"/>
<path d="M8.97754 8.81738H7.80566L7.63965 3.89062H9.14355L8.97754 8.81738ZM8.3916 9.58887C8.62923 9.58887 8.81966 9.65885 8.96289 9.79883C9.10938 9.9388 9.18262 10.1178 9.18262 10.3359C9.18262 10.5508 9.10938 10.7282 8.96289 10.8682C8.81966 11.0081 8.62923 11.0781 8.3916 11.0781C8.15723 11.0781 7.9668 11.0081 7.82031 10.8682C7.67708 10.7282 7.60547 10.5508 7.60547 10.3359C7.60547 10.1211 7.67708 9.94368 7.82031 9.80371C7.9668 9.66048 8.15723 9.58887 8.3916 9.58887Z" fill="white"/>
</svg>
