<svg width="20" height="20" viewBox="0 0 20 20" fill="none" xmlns="http://www.w3.org/2000/svg">
<rect width="20" height="20" fill="#C4DDF2"/>
<path d="M3.92499 2.74166C3.84729 2.66396 3.75505 2.60233 3.65353 2.56028C3.55201 2.51823 3.44321 2.49658 3.33333 2.49658C3.22344 2.49658 3.11464 2.51823 3.01312 2.56028C2.9116 2.60233 2.81936 2.66396 2.74166 2.74166C2.58474 2.89858 2.49658 3.11141 2.49658 3.33333C2.49658 3.55524 2.58474 3.76807 2.74166 3.92499L7.43333 8.61666C7.1365 9.16884 7.02548 9.80197 7.11673 10.4222C7.20799 11.0424 7.49665 11.6168 7.93994 12.06C8.38323 12.5033 8.95755 12.792 9.57779 12.8833C10.198 12.9745 10.8311 12.8635 11.3833 12.5667L16.075 17.2583C16.1525 17.3364 16.2446 17.3984 16.3462 17.4407C16.4477 17.483 16.5566 17.5048 16.6667 17.5048C16.7767 17.5048 16.8856 17.483 16.9871 17.4407C17.0887 17.3984 17.1809 17.3364 17.2583 17.2583C17.3364 17.1809 17.3984 17.0887 17.4407 16.9871C17.483 16.8856 17.5048 16.7767 17.5048 16.6667C17.5048 16.5566 17.483 16.4477 17.4407 16.3462C17.3984 16.2446 17.3364 16.1525 17.2583 16.075L3.92499 2.74166ZM9.99999 11.25C9.66847 11.25 9.35053 11.1183 9.11611 10.8839C8.88169 10.6495 8.74999 10.3315 8.74999 9.99999V9.94166L10.05 11.2417L9.99999 11.25Z" fill="#4A4E59"/>
<path d="M10.1833 14.1667C6.59998 14.25 4.24998 11.175 3.51664 10C4.0387 9.16726 4.66611 8.4054 5.38331 7.73335L4.16664 6.55835C3.22608 7.44457 2.42032 8.46371 1.77498 9.58335C1.70184 9.71003 1.66333 9.85374 1.66333 10C1.66333 10.1463 1.70184 10.29 1.77498 10.4167C2.29998 11.325 5.10831 15.8334 10.0166 15.8334H10.225C11.1479 15.806 12.0589 15.617 12.9166 15.275L11.6 13.9584C11.1369 14.0802 10.6618 14.15 10.1833 14.1667Z" fill="#4A4E59"/>
<path d="M18.225 9.58331C17.6917 8.65831 14.75 4.01664 9.77504 4.16664C8.85208 4.19402 7.94107 4.38299 7.08337 4.72497L8.40004 6.04164C8.86307 5.91983 9.33822 5.84996 9.81671 5.83331C13.3917 5.74164 15.7417 8.82497 16.4834 9.99997C15.9484 10.8352 15.3069 11.5972 14.575 12.2666L15.8334 13.4416C16.7857 12.5577 17.6028 11.5385 18.2584 10.4166C18.3265 10.2871 18.3593 10.1418 18.3535 9.9955C18.3476 9.84921 18.3033 9.70704 18.225 9.58331V9.58331Z" fill="#4A4E59"/>
</svg>
