<svg width="20" height="20" viewBox="0 0 20 20" fill="none" xmlns="http://www.w3.org/2000/svg">
<path d="M10.7834 18.3334H9.20842C8.83711 18.3334 8.48102 18.1859 8.21847 17.9234C7.95591 17.6608 7.80842 17.3047 7.80842 16.9334V16.0251C7.8039 15.9716 7.78427 15.9204 7.75181 15.8776C7.71935 15.8349 7.6754 15.8022 7.62508 15.7834C7.57409 15.7507 7.51481 15.7334 7.45425 15.7334C7.39369 15.7334 7.3344 15.7507 7.28342 15.7834L6.66675 16.4501C6.5374 16.5803 6.38355 16.6837 6.21407 16.7543C6.04459 16.8248 5.86283 16.8611 5.67925 16.8611C5.49567 16.8611 5.31391 16.8248 5.14443 16.7543C4.97495 16.6837 4.8211 16.5803 4.69175 16.4501L3.55008 15.3334C3.41793 15.2043 3.31298 15.0501 3.24141 14.8797C3.16985 14.7094 3.13313 14.5265 3.13341 14.3417C3.13395 13.9639 3.2837 13.6015 3.55008 13.3334L4.16675 12.7167C4.19652 12.6708 4.21236 12.6173 4.21236 12.5626C4.21236 12.5079 4.19652 12.4543 4.16675 12.4084C4.11675 12.2834 4.03341 12.1917 3.91675 12.1917H3.06675C2.69468 12.1895 2.3386 12.0402 2.07629 11.7763C1.81397 11.5124 1.66674 11.1555 1.66675 10.7834V9.20842C1.66675 8.83711 1.81425 8.48102 2.0768 8.21847C2.33935 7.95591 2.69545 7.80842 3.06675 7.80842H3.97508C4.0286 7.8039 4.07973 7.78427 4.12252 7.75181C4.1653 7.71935 4.19798 7.6754 4.21675 7.62508C4.24942 7.57409 4.26678 7.51481 4.26678 7.45425C4.26678 7.39369 4.24942 7.3344 4.21675 7.28342L3.55008 6.66675C3.41982 6.5374 3.31644 6.38355 3.24589 6.21407C3.17534 6.04459 3.13902 5.86283 3.13902 5.67925C3.13902 5.49567 3.17534 5.31391 3.24589 5.14443C3.31644 4.97495 3.41982 4.8211 3.55008 4.69175L4.66675 3.55008C4.79458 3.41856 4.94743 3.31394 5.11631 3.24238C5.28519 3.17082 5.46667 3.13377 5.65008 3.13341C5.83862 3.13259 6.02547 3.16896 6.19993 3.24046C6.37438 3.31196 6.53302 3.41718 6.66675 3.55008L7.28342 4.16675C7.32932 4.19652 7.38287 4.21236 7.43758 4.21236C7.4923 4.21236 7.54584 4.19652 7.59175 4.16675C7.71675 4.11675 7.80842 4.03341 7.80842 3.91675V3.06675C7.81062 2.69468 7.95997 2.3386 8.22384 2.07629C8.48772 1.81397 8.84468 1.66674 9.21675 1.66675H10.8334C11.2047 1.66675 11.5608 1.81425 11.8234 2.0768C12.0859 2.33935 12.2334 2.69545 12.2334 3.06675V3.97508C12.2379 4.0286 12.2576 4.07973 12.29 4.12252C12.3225 4.1653 12.3664 4.19798 12.4167 4.21675C12.4677 4.24942 12.527 4.26678 12.5876 4.26678C12.6481 4.26678 12.7074 4.24942 12.7584 4.21675L13.3334 3.55008C13.4628 3.41982 13.6166 3.31644 13.7861 3.24589C13.9556 3.17534 14.1373 3.13902 14.3209 3.13902C14.5045 3.13902 14.6863 3.17534 14.8557 3.24589C15.0252 3.31644 15.1791 3.41982 15.3084 3.55008L16.4501 4.66675C16.5819 4.79613 16.6866 4.95044 16.7581 5.1207C16.8296 5.29095 16.8666 5.47374 16.8667 5.65842C16.8708 5.84616 16.8358 6.0327 16.7641 6.20625C16.6924 6.37981 16.5855 6.53661 16.4501 6.66675L15.8334 7.28342C15.8036 7.32932 15.7878 7.38287 15.7878 7.43758C15.7878 7.4923 15.8036 7.54584 15.8334 7.59175C15.8834 7.71675 15.9667 7.80842 16.0834 7.80842H16.9917C17.3536 7.82556 17.6949 7.98148 17.9448 8.24375C18.1946 8.50603 18.3338 8.8545 18.3334 9.21675V10.8334C18.3334 11.2047 18.1859 11.5608 17.9234 11.8234C17.6608 12.0859 17.3047 12.2334 16.9334 12.2334H16.0251C15.9716 12.2379 15.9204 12.2576 15.8776 12.29C15.8349 12.3225 15.8022 12.3664 15.7834 12.4167C15.7536 12.4627 15.7378 12.5162 15.7378 12.5709C15.7378 12.6256 15.7536 12.6792 15.7834 12.7251L16.4251 13.3667C16.5553 13.4961 16.6587 13.6499 16.7293 13.8194C16.7998 13.9889 16.8361 14.1707 16.8361 14.3542C16.8361 14.5378 16.7998 14.7196 16.7293 14.8891C16.6587 15.0585 16.5553 15.2124 16.4251 15.3417L15.3334 16.4501C15.2056 16.5816 15.0527 16.6862 14.8839 16.7578C14.715 16.8293 14.5335 16.8664 14.3501 16.8667C13.978 16.8619 13.6223 16.7124 13.3584 16.4501L12.7167 15.8334C12.6708 15.8036 12.6173 15.7878 12.5626 15.7878C12.5079 15.7878 12.4543 15.8036 12.4084 15.8334C12.2834 15.8834 12.1917 15.9667 12.1917 16.0834V16.9917C12.1746 17.3536 12.0187 17.6949 11.7564 17.9448C11.4941 18.1946 11.1457 18.3338 10.7834 18.3334ZM9.47508 16.6667H10.5251V16.0251C10.5286 15.6408 10.6461 15.2662 10.8627 14.9487C11.0793 14.6313 11.3852 14.3852 11.7417 14.2417C12.0997 14.0853 12.4962 14.039 12.8806 14.1087C13.265 14.1785 13.6199 14.3611 13.9001 14.6334L14.3501 15.0834L15.0834 14.3501L14.6334 13.8917C14.3629 13.6158 14.1804 13.2657 14.1092 12.8859C14.0379 12.506 14.0812 12.1136 14.2334 11.7584C14.3782 11.4035 14.6248 11.0993 14.9422 10.8843C15.2595 10.6692 15.6334 10.553 16.0167 10.5501H16.6667V9.47508H16.0251C15.6408 9.47153 15.2662 9.35402 14.9487 9.13744C14.6313 8.92085 14.3852 8.61493 14.2417 8.25842C14.0853 7.90044 14.039 7.50397 14.1087 7.11957C14.1785 6.73517 14.3611 6.38025 14.6334 6.10008L15.0834 5.65008L14.3501 4.91675L13.8917 5.36675C13.6115 5.62272 13.264 5.79329 12.8901 5.85838C12.5162 5.92346 12.1314 5.88036 11.7812 5.73413C11.431 5.58791 11.1298 5.34465 10.9132 5.03301C10.6965 4.72137 10.5734 4.35432 10.5584 3.97508V3.33341H9.47508V3.97508C9.47153 4.35937 9.35402 4.73396 9.13744 5.05143C8.92085 5.36889 8.61493 5.61494 8.25842 5.75842C7.90044 5.91489 7.50397 5.9612 7.11957 5.89145C6.73517 5.82169 6.38025 5.63903 6.10008 5.36675L5.65008 4.91675L4.91675 5.65008L5.36675 6.10842C5.62272 6.38864 5.79329 6.73618 5.85838 7.11009C5.92346 7.48401 5.88036 7.86874 5.73413 8.21897C5.58791 8.56921 5.34465 8.87038 5.03301 9.08701C4.72137 9.30364 4.35432 9.42672 3.97508 9.44175H3.33341V10.4917H3.97508C4.35937 10.4953 4.73396 10.6128 5.05143 10.8294C5.36889 11.046 5.61494 11.3519 5.75842 11.7084C5.91489 12.0664 5.9612 12.4629 5.89145 12.8473C5.82169 13.2317 5.63903 13.5866 5.36675 13.8667L4.91675 14.3167L5.65008 15.0501L6.10842 14.6001C6.38864 14.3441 6.73618 14.1735 7.11009 14.1085C7.48401 14.0434 7.86874 14.0865 8.21897 14.2327C8.56921 14.3789 8.87038 14.6222 9.08701 14.9338C9.30364 15.2455 9.42672 15.6125 9.44175 15.9917L9.47508 16.6667Z" fill="#8B8E93"/>
<path d="M9.99992 12.9166C9.42306 12.9166 8.85915 12.7455 8.37951 12.425C7.89986 12.1046 7.52603 11.649 7.30527 11.1161C7.08452 10.5831 7.02676 9.99669 7.1393 9.43091C7.25184 8.86513 7.52962 8.34543 7.93753 7.93753C8.34543 7.52962 8.86513 7.25184 9.43091 7.1393C9.99669 7.02676 10.5831 7.08452 11.1161 7.30527C11.649 7.52603 12.1046 7.89986 12.425 8.37951C12.7455 8.85915 12.9166 9.42306 12.9166 9.99992C12.9166 10.7735 12.6093 11.5153 12.0623 12.0623C11.5153 12.6093 10.7735 12.9166 9.99992 12.9166ZM9.99992 8.74992C9.75269 8.74992 9.51102 8.82323 9.30546 8.96058C9.0999 9.09793 8.93968 9.29316 8.84507 9.52157C8.75046 9.74997 8.72571 10.0013 8.77394 10.2438C8.82217 10.4863 8.94122 10.709 9.11604 10.8838C9.29085 11.0586 9.51358 11.1777 9.75606 11.2259C9.99853 11.2741 10.2499 11.2494 10.4783 11.1548C10.7067 11.0602 10.9019 10.8999 11.0393 10.6944C11.1766 10.4888 11.2499 10.2471 11.2499 9.99992C11.2499 9.6684 11.1182 9.35046 10.8838 9.11604C10.6494 8.88162 10.3314 8.74992 9.99992 8.74992Z" fill="#8B8E93"/>
</svg>
