<svg width="33" height="33" viewBox="0 0 33 33" fill="none" xmlns="http://www.w3.org/2000/svg">
<circle cx="16.5" cy="16.5" r="16.5" fill="#8B8E93"/>
<path d="M25.1 16C25.1 15.9 25.1 15.8 25.1 15.6C25 14.2 24.5 12.8 23.7 11.6C22.6 9.9 20.9 8.5 18.9 7.9C18.4 7.7 17.8 8 17.6 8.5C17.4 9 17.7 9.6 18.2 9.8C21 10.7 22.9 13.2 23.1 16.1C23.2 17.3 23 18.6 22.5 19.7C22.5 19.8 22.4 19.8 22.4 19.9C22.3 20.1 22.2 20.3 22.1 20.5C22 20.6 21.9 20.8 21.8 20.9C21.7 21 21.6 21.1 21.6 21.2C21.2 21.7 20.6 22.2 20.1 22.6C19.8 22.8 19.6 22.9 19.3 23.1C18.9 23.3 18.5 23.5 18 23.6C16.4 24 14.8 23.9 13.3 23.3C13 23.2 12.7 23 12.5 22.9L12.4 22.8C12.3 22.8 12.3 22.7 12.2 22.7C11.5 22.3 11 21.7 10.5 21.1C9.50004 19.9 9.00004 18.3 9.00004 16.6C9.00004 14 10.4 11.6 12.6 10.4L12.1 12C12 12.6 12.4 13.1 12.9 13.2C13.5 13.3 14 12.9 14.1 12.4L14.8 8.2V7.9C14.8 7.8 14.8 7.7 14.7 7.6C14.7 7.6 14.7 7.5 14.6 7.5C14.6 7.4 14.5 7.4 14.5 7.3L14.4 7.2C14.4 7.1 14.3 7.1 14.2 7.1C14.1 7.1 14.1 7.1 14 7.1C14.1 7 14 7 14 7L10 6.2C9.40004 6.1 8.90004 6.5 8.80004 7C8.70004 7.6 9.10004 8.1 9.60004 8.2L11.6 8.6C7.10004 11 5.50004 16.6 7.90004 21.1C8.00004 21.4 8.20004 21.6 8.40004 21.9C9.00004 22.8 9.80004 23.6 10.7 24.3C11.2 24.7 11.8 24.9 12.4 25.2C12.5 25.2 12.6 25.3 12.7 25.3C14.3 25.9 16.1 26 17.8 25.7C19.2 25.4 20.4 24.8 21.6 24C21.7 24 21.7 23.9 21.8 23.9C22.5 23.4 23 22.7 23.5 22C24.7 20.1 25.2 18.1 25.1 16Z" fill="#181D26"/>
</svg>
