<svg width="33" height="33" viewBox="0 0 33 33" fill="none" xmlns="http://www.w3.org/2000/svg">
<circle cx="16.5" cy="16.5" r="16.5" fill="#8B8E93"/>
<path d="M25.12 12.71L20.29 7.88C19.7279 7.31723 18.9654 7.0007 18.17 7H11C10.2044 7 9.44129 7.31607 8.87868 7.87868C8.31607 8.44129 8 9.20435 8 10V22C8 22.7956 8.31607 23.5587 8.87868 24.1213C9.44129 24.6839 10.2044 25 11 25H23C23.7956 25 24.5587 24.6839 25.1213 24.1213C25.6839 23.5587 26 22.7956 26 22V14.83C25.9993 14.0346 25.6828 13.2721 25.12 12.71ZM15 23V21H19V23H15ZM24 22C24 22.2652 23.8946 22.5196 23.7071 22.7071C23.5196 22.8946 23.2652 23 23 23H21V20C21 19.7348 20.8946 19.4804 20.7071 19.2929C20.5196 19.1054 20.2652 19 20 19H14C13.7348 19 13.4804 19.1054 13.2929 19.2929C13.1054 19.4804 13 19.7348 13 20V23H11C10.7348 23 10.4804 22.8946 10.2929 22.7071C10.1054 22.5196 10 22.2652 10 22V10C10 9.73478 10.1054 9.48043 10.2929 9.29289C10.4804 9.10536 10.7348 9 11 9H13V14C13 14.2652 13.1054 14.5196 13.2929 14.7071C13.4804 14.8946 13.7348 15 14 15H18C18.2652 15 18.5196 14.8946 18.7071 14.7071C18.8946 14.5196 19 14.2652 19 14C19 13.7348 18.8946 13.4804 18.7071 13.2929C18.5196 13.1054 18.2652 13 18 13H15V9H18.17C18.4348 9.00368 18.6884 9.10727 18.88 9.29L23.71 14.12C23.8027 14.2134 23.876 14.3243 23.9258 14.4461C23.9755 14.5679 24.0008 14.6984 24 14.83V22Z" fill="#181D26"/>
</svg>
