<svg width="20" height="20" viewBox="0 0 20 20" fill="none" xmlns="http://www.w3.org/2000/svg">
<path d="M18.7647 8.92493L13.0978 3.23838C12.5918 2.73065 11.7148 3.08606 11.7148 3.8138V7.06326H7.12724C6.67861 7.06326 6.31767 7.42544 6.31767 7.87563V11.1251C6.31767 11.5753 6.67861 11.9375 7.12724 11.9375H11.7148V15.1869C11.7148 15.9113 12.5884 16.2701 13.0978 15.7623L18.7647 10.0758C19.0784 9.75761 19.0784 9.24311 18.7647 8.92493ZM8.47651 3.40762V4.76156C8.47651 4.98496 8.29436 5.16775 8.07173 5.16775H5.23826C4.6412 5.16775 4.15884 5.65178 4.15884 6.2509V12.7498C4.15884 13.3489 4.6412 13.833 5.23826 13.833H8.07173C8.29436 13.833 8.47651 14.0158 8.47651 14.2392V15.5931C8.47651 15.8165 8.29436 15.9993 8.07173 15.9993H5.23826C3.45047 15.9993 2 14.5438 2 12.7498V6.2509C2 4.45693 3.45047 3.00144 5.23826 3.00144H8.07173C8.29436 3.00144 8.47651 3.18422 8.47651 3.40762Z" fill="#8B8E93"/>
</svg>
