<svg id="Layer_1" data-name="Layer 1" xmlns="http://www.w3.org/2000/svg" xmlns:xlink="http://www.w3.org/1999/xlink" viewBox="0 0 317.97 490.2"><defs><style>.cls-1{fill:none;}.cls-2{clip-path:url(#clip-path);}.cls-3{fill:#696a6d;}</style><clipPath id="clip-path" transform="translate(-97.02 -10.9)"><rect class="cls-1" x="97.02" y="10.9" width="317.97" height="490.2"/></clipPath></defs><title>F-logo-512x512</title><g class="cls-2"><path class="cls-3" d="M371.14,10.9H193.59v54l44.89,53.36,176.5,2.1V43.27Z" transform="translate(-97.02 -10.9)"/><path class="cls-3" d="M258.47,222.23H223.08l-57.4,45,61.09,58.17,60.48.62,76.41.52.35-56.33Z" transform="translate(-97.02 -10.9)"/><path class="cls-3" d="M211,338.4l-61.45-58.7-52.38,41L97,501.1h20.77L211,395.17Z" transform="translate(-97.02 -10.9)"/><path class="cls-3" d="M197.55,217.34,97.72,167,97,293.44Z" transform="translate(-97.02 -10.9)"/><path class="cls-3" d="M122.37,11.16,97,10.9l.79,133.4L212.34,202l.61-83.62Z" transform="translate(-97.02 -10.9)"/></g></svg>